<?xml version="1.0" encoding="UTF-8" standalone="no"?>
<svg
   xmlns:dc="http://purl.org/dc/elements/1.1/"
   xmlns:cc="http://creativecommons.org/ns#"
   xmlns:rdf="http://www.w3.org/1999/02/22-rdf-syntax-ns#"
   xmlns:svg="http://www.w3.org/2000/svg"
   xmlns="http://www.w3.org/2000/svg"
   xmlns:sodipodi="http://sodipodi.sourceforge.net/DTD/sodipodi-0.dtd"
   xmlns:inkscape="http://www.inkscape.org/namespaces/inkscape"
   width="32"
   height="32"
   id="svg2"
   version="1.1"
   inkscape:version="0.91 r13725"
   sodipodi:docname="canoe.svg">
  <defs
     id="defs18" />
  <sodipodi:namedview
     pagecolor="#ffffff"
     bordercolor="#666666"
     borderopacity="1"
     objecttolerance="10"
     gridtolerance="10"
     guidetolerance="10"
     inkscape:pageopacity="0"
     inkscape:pageshadow="2"
     inkscape:window-width="1255"
     inkscape:window-height="719"
     id="namedview16"
     showgrid="false"
     inkscape:zoom="0.84096523"
     inkscape:cx="376.36245"
     inkscape:cy="655.00441"
     inkscape:window-x="502"
     inkscape:window-y="116"
     inkscape:window-maximized="0"
     inkscape:current-layer="svg2"
     showborder="false" />
  <title
     id="title4">canoe</title>
  <metadata
     id="metadata18081">image/svg+xmlPublic Domainclker.comMohamed Ibrahimmap symbolsmap symbolsimage/svg+xmlMap SymbolsMohamed IbrahimPublic Domainclker.commap symbols<rdf:RDF>
  <cc:Work
     rdf:about="">
    <dc:format>image/svg+xml</dc:format>
    <dc:type
       rdf:resource="http://purl.org/dc/dcmitype/StillImage" />
    <dc:title>canoe</dc:title>
  </cc:Work>
</rdf:RDF>
</metadata>
  <g
     id="g4156"
     transform="matrix(0.32,0,0,0.32,298.38745,-767.9612)">
    <path
       id="path7088"
       d="m 384.53046,372.82376 c 20.56363,0 37.18023,-16.71405 37.18023,-37.27768 0,-20.56366 -16.6166,-37.22897 -37.18023,-37.22897 -20.56366,0 -37.22898,16.66531 -37.22898,37.22897 0,20.56363 16.66532,37.27768 37.22898,37.27768"
       inkscape:connector-curvature="0"
       style="fill:#000000;fill-opacity:1;fill-rule:nonzero" />
    <path
       id="path7090"
       d="m 237.16338,576.3161 c 8.72248,0 17.10389,-1.99786 24.60814,-5.36017 7.69918,-3.55725 16.42169,-5.65259 25.48529,-5.65259 9.01486,0 17.73736,2.09534 25.38781,5.65259 7.55298,3.36231 15.9831,5.31146 24.80307,5.31146 8.77121,0 17.15262,-1.94915 24.7056,-5.31146 7.65045,-3.55725 16.37296,-5.65259 25.43655,-5.65259 9.0636,0 17.68863,2.09534 25.48526,5.65259 7.45554,3.36231 15.93439,5.31146 24.65689,5.31146 8.77124,0 17.25007,-1.94915 24.7056,-5.31146 7.74793,-3.55725 16.42169,-5.65259 25.53403,-5.65259 9.01486,0 17.68863,2.09534 25.38782,5.65259 7.55297,3.36231 15.98309,5.31146 24.75433,5.31146 8.81994,0 17.20135,-1.94915 24.75433,-5.31146 7.65045,-3.55725 16.37293,-5.65259 25.38782,-5.65259 7.74792,0 15.3009,1.46186 22.07422,4.14197 11.06152,-12.08478 17.93231,-28.16534 17.93231,-45.8053 0,-37.47259 -30.35822,-67.83075 -67.83081,-67.83075 l -7.60175,0.77967 c -8.33264,33.86667 -42.15057,35.27981 -42.15057,35.27981 l -154.86081,-0.0487 -12.96191,-7.60172 31.23529,-52.3837 34.15902,19.73526 c 20.46622,13.25428 31.13785,-5.3602 31.13785,-5.3602 l 34.2565,-55.84344 c 14.86237,-24.26706 -16.71405,-43.70993 -31.52765,-19.34543 l -23.9747,39.1294 -57.01294,-31.52765 c -39.47049,-22.02555 -56.23327,14.4725 -56.23327,14.4725 l -44.78199,76.69946 c -7.6017,15.93439 -0.82836,22.80518 -0.82836,22.80518 l -22.12298,-0.0487 0,83.7652 0,-6e-5 z"
       inkscape:connector-curvature="0"
       style="fill:#000000;fill-opacity:1;fill-rule:nonzero" />
    <path
       id="path7092"
       d="m 640.44678,650.38422 c -8.77124,0 -17.20136,-1.94916 -24.65686,-5.31147 -7.74793,-3.60595 -16.4217,-5.70129 -25.534,-5.70129 -9.01489,0 -17.73737,2.09534 -25.38782,5.70129 -7.55304,3.36231 -15.93438,5.31147 -24.75433,5.31147 -8.77124,0 -17.20136,-1.94916 -24.75433,-5.31147 -7.69922,-3.60595 -16.37299,-5.70129 -25.38785,-5.70129 -9.11234,0 -17.7861,2.09534 -25.534,5.70129 -7.45553,3.36231 -15.93439,5.31147 -24.7056,5.31147 -8.7225,0 -17.20135,-1.94916 -24.65689,-5.31147 -7.79663,-3.60595 -16.42166,-5.70129 -25.48526,-5.70129 -9.0636,0 -17.7861,2.09534 -25.43655,5.70129 -7.55298,3.36231 -15.93439,5.31147 -24.7056,5.31147 -8.81994,0 -17.25006,-1.94916 -24.80307,-5.31147 -7.65045,-3.60595 -16.37295,-5.70129 -25.38781,-5.70129 -9.0636,0 -17.78611,2.09534 -25.4853,5.70129 -7.50424,3.36231 -15.93437,5.31147 -24.70559,5.31147 l 0,-37.03406 c 8.77122,0 17.20135,-1.99787 24.70559,-5.36017 7.69922,-3.55725 16.4217,-5.65259 25.4853,-5.65259 9.01486,0 17.73736,2.09534 25.38781,5.65259 7.55301,3.36231 15.98313,5.36017 24.80307,5.36017 8.77121,0 17.15262,-1.99787 24.7056,-5.36017 7.65045,-3.55725 16.37295,-5.65259 25.43655,-5.65259 9.0636,0 17.68863,2.09534 25.48529,5.65259 7.45554,3.36231 15.93436,5.36017 24.65686,5.36017 8.77124,0 17.25007,-1.99787 24.70563,-5.36017 7.7479,-3.55725 16.42166,-5.65259 25.534,-5.65259 9.01486,0 17.68863,2.09534 25.38782,5.65259 7.55297,3.36231 15.98309,5.36017 24.75433,5.36017 8.81994,0 17.20135,-1.99787 24.75433,-5.36017 7.65045,-3.55725 16.37293,-5.65259 25.38782,-5.65259 9.1123,0 17.78607,2.09534 25.534,5.65259 7.45556,3.36231 15.88568,5.36017 24.65686,5.36017 l 0,37.03406 z"
       inkscape:connector-curvature="0"
       style="fill:#000000;fill-opacity:1;fill-rule:nonzero" />
  </g>
</svg>
