<?xml version="1.0" encoding="utf-8"?>
<!DOCTYPE svg PUBLIC "-//W3C//DTD SVG 1.1//EN" "http://www.w3.org/Graphics/SVG/1.1/DTD/svg11.dtd">
<svg version="1.1" xmlns="http://www.w3.org/2000/svg" xmlns:xlink="http://www.w3.org/1999/xlink" x="0px" y="0px" viewBox="0 0 1000 1000"
     enable-background="new 0 0 1000 1000" xml:space="preserve" style="display: inline-block; color: rgb(0, 0, 0); fill: rgb(66, 66, 66); height: 24px; width: 24px; ">
  <g>
    <path d="M345.6,253c24.6,0,45.8-9,63.7-26.9c17.9-17.9,26.9-39.2,26.9-63.7c0-24.6-9-45.8-26.9-63.7c-17.9-17.9-39.2-26.9-63.7-26.9s-45.8,9-63.7,26.9S255,137.8,255,162.4c0,24.6,9,45.8,26.9,63.7C299.8,244,321.1,253,345.6,253z"/>
    <path d="M10,749c21.2,0,41.2-4.6,59.8-13.9c19.9-9.3,40.8-13.9,62.7-13.9s42.8,4.6,62.7,13.9c18.6,9.3,38.5,13.9,59.8,13.9s41.2-4.6,59.8-13.9c19.9-9.3,41.2-13.9,63.7-13.9c21.2,0,41.8,4.6,61.7,13.9c18.6,9.3,38.5,13.9,59.8,13.9s41.2-4.6,59.8-13.9c19.9-9.3,40.8-13.9,62.7-13.9s42.8,4.6,62.7,13.9c18.6,9.3,38.5,13.9,59.8,13.9s41.2-4.6,59.8-13.9c19.9-9.3,40.5-13.9,61.7-13.9c18.6,0,36.5,3.3,53.8,10c29.2-31.9,43.8-69.1,43.8-111.5c0-45.2-15.9-84-47.8-116.5c-31.9-32.5-71-48.8-117.5-48.8l-17.9,2c-6.6,25.2-18.3,44.8-34.9,58.8c-16.6,13.9-32.2,22.2-46.8,24.9l-21.9,2H300.8l-31.9-17.9l75.7-127.5l83.7,47.8c15.9,9.3,29.5,12.9,40.8,11c11.3-2,20.3-6.3,26.9-12.9l8-10l83.7-137.4c12-18.6,13.6-35.5,5-50.8c-8.6-15.3-21.2-22.6-37.8-21.9c-16.6,0.7-31.5,9.6-44.8,26.9l-57.8,95.6L312.8,267c-31.9-14.6-57.8-19.3-77.7-13.9c-19.9,5.3-35.2,14.6-45.8,27.9l-13.9,21.9L65.8,488c-5.3,12-8,22.6-8,31.9c0,9.3,1,15.6,3,18.9l3,5H10V749z"/>
    <path d="M990,928.3c-21.2,0-41.2-4-59.8-12c-19.9-9.3-40.8-13.9-62.7-13.9s-42.8,4.6-62.7,13.9c-18.6,8-38.5,12-59.8,12s-41.2-4-59.8-12c-19.9-9.3-40.8-13.9-62.7-13.9s-42.8,4.6-62.7,13.9c-18.6,8-38.5,12-59.8,12s-41.2-4-59.8-12c-19.9-9.3-40.5-13.9-61.7-13.9c-22.6,0-43.8,4.6-63.7,13.9c-18.6,8-38.5,12-59.8,12s-41.2-4-59.8-12c-19.9-9.3-40.8-13.9-62.7-13.9s-42.8,4.6-62.7,13.9c-18.6,8-38.5,12-59.8,12v-89.6c21.2,0,41.2-4.6,59.8-13.9c19.9-9.3,40.8-13.9,62.7-13.9s42.8,4.6,62.7,13.9c19.9,9.3,40.2,13.9,60.8,13.9c20.6,0,40.2-4.6,58.8-13.9c19.9-9.3,41.2-13.9,63.7-13.9c21.2,0,41.8,4.6,61.7,13.9c18.6,9.3,38.5,13.9,59.8,13.9s41.2-4.6,59.8-13.9c19.9-9.3,40.8-13.9,62.7-13.9s42.8,4.6,62.7,13.9c18.6,9.3,38.5,13.9,59.8,13.9s41.2-4.6,59.8-13.9c19.9-9.3,40.5-13.9,61.7-13.9s42.5,4.6,63.7,13.9c18.6,9.3,38.5,13.9,59.8,13.9V928.3z"/>
  </g>
</svg>
