<?xml version="1.0" encoding="utf-8"?>
<!DOCTYPE svg PUBLIC "-//W3C//DTD SVG 1.1//EN" "http://www.w3.org/Graphics/SVG/1.1/DTD/svg11.dtd">
<svg version="1.1" xmlns="http://www.w3.org/2000/svg" xmlns:xlink="http://www.w3.org/1999/xlink" x="0px" y="0px" viewBox="0 0 1000 1000" enable-background="new 0 0 1000 1000" xml:space="preserve"
  style="display: inline-block; color: rgb(0, 0, 0); fill: rgb(66, 66, 66); height: 24px; width: 24px; ">
<g transform="translate(0.000000,511.000000) scale(0.100000,-0.100000)">
  <path d="M4630.1,4811.1C2627.9,4684.9,966.3,3435.8,362,1600.5C71.2,723.5,19.3-372.3,222.2-1305.7c24.8-110.5,49.6-205.2,56.4-211.9c4.5-6.8,439.7,115,962.7,270.6c924.4,270.6,953.7,281.8,951.5,335.9c0,29.3-20.3,191.6-42.8,358.5c-126.3,960.5,117.2,1853.3,676.4,2475.6c252.5,279.6,712.5,574.9,1116,710.2c358.5,121.8,608.8,160.1,1059.7,160.1c347.2,0,455.4-9,653.8-51.9c593-126.3,1057.4-365.3,1431.7-735c299.9-295.4,500.5-620,640.3-1039.4c148.8-439.7,193.9-1003.3,126.3-1519.6c-22.5-166.8-42.9-329.2-42.9-358.5c-2.2-54.1,27.1-65.4,951.5-335.9c523.1-155.6,958.2-275.1,965-270.6c20.3,20.3,94.7,417.1,135.3,705.7c49.6,367.5,49.6,1082.2-2.2,1443c-151.1,1095.8-568.2,1988.6-1271.6,2721.4c-832,870.3-1950.3,1373.1-3242.2,1461c-182.6,11.3-358.5,20.3-390,18C4925.4,4831.4,4778.9,4822.4,4630.1,4811.1z M5132.8,4292.6c225.5-47.3,387.8-252.5,387.8-487c-2.2-313.4-225.5-520.8-536.6-496c-169.1,13.5-288.6,83.4-381,221c-72.1,108.2-94.7,306.6-51.9,437.4c49.6,153.3,202.9,286.3,372,329.2C5020.1,4319.6,5011.1,4319.6,5132.8,4292.6z M2361.9,3190.1c363-103.7,482.5-574.9,214.2-841c-315.6-315.6-845.5-90.2-845.5,356.2C1730.6,3041.2,2044,3282.5,2361.9,3190.1z M7964.7,3185.5c124-38.3,295.4-205.2,326.9-322.4c54.1-200.7,13.5-363-133-507.3c-322.4-322.4-843.2-106-843.2,349.5C7315.3,3052.5,7628.7,3284.8,7964.7,3185.5z M1329.3,617.5c338.2-169.1,360.7-658.3,40.6-870.3c-108.2-72.1-306.6-94.7-437.4-51.9C736.3-239.2,607.8-49.9,605.5,175.6C605.5,549.9,991.1,786.6,1329.3,617.5z M9098.8,637.8c38.3-11.3,112.7-60.9,162.3-112.7c209.7-207.4,196.1-536.6-29.3-732.8c-103.7-92.4-216.4-126.3-376.5-115c-178.1,13.5-302.1,96.9-387.8,266c-56.4,108.2-63.1,142-54.1,268.3C8440.4,556.6,8744.8,746,9098.8,637.8z"/>
  <path d="M1349.6-1666.4c-1082.2-320.2-980.8-245.8-845.5-613.3c189.4-511.8,523.1-1122.8,847.7-1555.7c173.6-232.2,496-599.7,604.2-692.2c155.6-130.8,286.3-110.5,455.4,69.9c268.3,281.8,935.7,1071,962.7,1134.1c49.6,117.2,13.5,207.4-157.8,396.8c-324.7,363-588.5,784.6-773.3,1237.8c-56.4,135.3-101.5,259.3-101.5,275c0,13.5-13.5,27.1-27.1,24.8C2298.8-1389.1,1863.6-1513.1,1349.6-1666.4z M2183.8-2687.8c117.2-182.6,216.4-342.7,220.9-356.2c4.5-22.5-394.6-295.4-410.3-279.6c-29.3,31.6-441.9,676.4-441.9,689.9c0,18,383.3,277.3,405.8,277.3C1965.1-2356.4,2066.5-2505.2,2183.8-2687.8z"/>
  <path d="M7619.7-1537.9c-178.1-500.5-473.5-992-843.2-1400.1c-164.6-182.6-196.2-266-146.6-383.3c27.1-65.4,881.6-1068.7,1028.1-1206.2c83.4-81.2,216.5-103.7,313.4-54.1c151.1,78.9,613.3,626.8,908.6,1075.5c205.2,315.7,496,890.6,620,1226.5c135.3,365.3,232.2,293.1-811.7,602c-496,146.6-926.7,272.8-958.2,279.6C7678.3-1386.9,7669.3-1395.9,7619.7-1537.9z M8343.5-2484.9c108.2-72.1,198.4-137.5,198.4-148.8c0-13.5-412.6-658.4-441.9-689.9c-15.8-15.8-414.9,257-410.4,279.6c9,31.6,432.9,687.7,444.2,687.7C8140.5-2356.4,8233-2415,8343.5-2484.9z"/>
</g>
</svg>
