<?xml version="1.0" encoding="utf-8"?>
<!DOCTYPE svg PUBLIC "-//W3C//DTD SVG 1.1//EN" "http://www.w3.org/Graphics/SVG/1.1/DTD/svg11.dtd">
<svg version="1.1" xmlns="http://www.w3.org/2000/svg" xmlns:xlink="http://www.w3.org/1999/xlink" x="0px" y="0px" viewBox="0 0 1000 1000"
     enable-background="new 0 0 1000 1000" xml:space="preserve" style="display: inline-block; color: rgb(0, 0, 0); fill: rgb(66, 66, 66); height: 24px; width: 24px; ">
<g>
    <path d="M861.9,737.3c45.4-39.8,72.5-97.9,72.5-159.4c0-75.3-40.6-145.6-105.8-183.3c-32.1-18.6-68.7-28.4-105.9-28.4H489.1V43.7c0-11.7-6-22.5-16-28.6c-9.9-6.1-22.3-6.7-32.7-1.5L84.3,191.6c-11.4,5.7-18.6,17.4-18.6,30.1V756c0,13.6,8,25.2,19.6,30.5c-12.4,20.3-19.6,44.1-19.6,69.6c0,73.8,60,133.8,133.8,133.8c39.8,0,75.6-17.5,100.2-45.2C324.2,972.5,360,990,399.8,990c39.8,0,75.6-17.5,100.2-45.2c24.5,27.7,60.3,45.2,100.2,45.2c39.8,0,75.6-17.5,100.2-45.2c24.5,27.7,60.3,45.2,100.2,45.2c73.8,0,133.8-60,133.8-133.8C934.3,804.5,904.9,759.6,861.9,737.3z M523.3,433.5l-90.1,90.1c-13.1,13.1-13.1,34.5,0,47.6c6.6,6.6,15.2,9.9,23.8,9.9c8.6,0,17.2-3.3,23.8-9.9l137.7-137.7h55l-90.1,90.1c-13.1,13.1-13.1,34.5,0,47.6c6.6,6.6,15.2,9.9,23.8,9.9c8.6,0,17.2-3.3,23.8-9.9l131.9-131.9c11.1,3.2,21.9,7.7,31.9,13.6c44.6,25.8,72.2,73.7,72.2,125.1c0,51.4-27.7,99.3-72.2,125.1c-21.9,12.7-46.8,19.4-72.2,19.4H133V255.4h288.9v144.4c0,18.6,15.1,33.7,33.7,33.7L523.3,433.5L523.3,433.5z M421.8,188.1H241.9l179.9-90V188.1L421.8,188.1z M199.5,922.7c-36.7,0-66.5-29.8-66.5-66.5c0-36.7,29.8-66.5,66.5-66.5c36.7,0,66.5,29.8,66.5,66.5C266,892.8,236.2,922.7,199.5,922.7z M399.8,922.7c-36.7,0-66.5-29.8-66.5-66.5c0-36.7,29.8-66.5,66.5-66.5s66.5,29.8,66.5,66.5C466.3,892.8,436.5,922.7,399.8,922.7z M600.2,922.7c-36.7,0-66.5-29.8-66.5-66.5c0-36.7,29.8-66.5,66.5-66.5c36.7,0,66.5,29.8,66.5,66.5C666.7,892.8,636.8,922.7,600.2,922.7z M800.5,922.7c-36.7,0-66.5-29.8-66.5-66.5c0-36.7,29.8-66.5,66.5-66.5c36.7,0,66.5,29.8,66.5,66.5C867,892.8,837.2,922.7,800.5,922.7z"/>
</g>
</svg>
