<?xml version="1.0" encoding="UTF-8" standalone="no"?>
<svg
  xmlns="http://www.w3.org/2000/svg"
  version="1.1"
  x="0px"
  y="0px"
  viewBox="0 0 297.249 297.249"
  xml:space="preserve"
  style="enable-background:new 0 0 297.249 297.249;">
  <g>
	<path d="M67.851,120.957H53.267c8.152-28,28.685-51.807,55.359-63.768L95.645,27.605c-38.193,16.976-66.903,51.352-75.728,93.352H0 l33.435,55.413L67.851,120.957z"/>
    <path d="M175.624,53.268c28,8.152,52.14,28.685,64.101,55.359l29.418-12.981c-16.976-38.193-51.519-66.903-93.519-75.728V0 l-55.413,33.436l55.413,34.414V53.268z"/>
    <path d="M263.813,120.544l-34.414,55.413h14.582c-8.152,28-28.685,51.973-55.359,63.934l12.982,29.502 c38.193-16.975,66.903-51.435,75.727-93.435h19.918L263.813,120.544z"/>
    <path d="M120.624,243.981c-28-8.152-51.639-28.685-63.6-55.358l-29.668,12.98c16.976,38.193,51.268,66.903,93.268,75.727v19.918 l55.414-33.436l-55.414-34.415V243.981z"/>
  </g>
</svg>
