<?xml version="1.0" encoding="iso-8859-1"?>
<!DOCTYPE svg PUBLIC "-//W3C//DTD SVG 1.1//EN" "http://www.w3.org/Graphics/SVG/1.1/DTD/svg11.dtd">
<svg version="1.1" id="Capa_1" xmlns="http://www.w3.org/2000/svg" x="0px" y="0px"
     width="21.013px" height="21.013px" viewBox="0 0 21.013 21.013" style="enable-background:new 0 0 21.013 21.013;"
     xml:space="preserve">
<g>
	<path d="M20.896,10.687c-0.825-1.417-1.865-2.526-3.721-2.549c0.314-0.622,0.584-1.116,0.816-1.63
		c0.145-0.319,0.263-0.793-0.163-0.879c-0.8-0.164-1.283-1.095-2.236-0.852c-0.52,0.132-1.126-0.053-1.277-0.505
		c-0.438-1.317-1.606-0.713-2.351-0.853c-1.226-0.23-2.376,0.441-3.348,1.274C8.231,5.024,4.971,5.022,4.81,4.637
		C4.431,3.737,3.88,4.14,3.385,4.34C2.616,4.647,1.91,5.13,1.126,5.372c-1.298,0.401-1.317,1.241-0.841,2.205
		c0.415,0.841,0.956,1.69,2.146,1.15C2.976,8.482,3.506,8.52,3.61,9.119c0.186,1.062,0.769,1.474,1.775,1.481
		c0.413,0.005,0.564,0.271,0.637,0.663c0.082,0.442,0.28,0.484,0.813,0.415c1.552-0.208,2.162,0.354,2.039,1.917
		c-0.056,0.718,0.146,0.831,0.713,0.897c1.18,0.141,2.147-0.193,2.841-1.293c-0.014,0.967-0.183,2.03,0.694,2.414
		c1.042,0.457,2.005,0.932,2.844,1.708c0.643,0.596,1.462,0.224,2.039-0.066c0.689-0.347,0.276-0.966-0.028-1.514
		c-0.551-0.981,0.156-2.403,1.295-2.729C20.49,12.667,21.333,11.439,20.896,10.687z"/>
</g>
</svg>
