<?xml version="1.0" encoding="iso-8859-1"?>
<svg version="1.1" id="Capa_1" xmlns="http://www.w3.org/2000/svg" x="0px" y="0px"
     viewBox="0 0 469.333 469.333" style="enable-background:new 0 0 469.333 469.333;" xml:space="preserve">
  <g>
    <path d="M62.825,384h1.173c34.133,0,64.533-18.773,85.333-42.667c20.8,23.893,51.2,42.667,85.333,42.667
      s64.533-18.773,85.333-42.667C340.905,365.227,371.092,384,405.332,384h1.173l40.427-142.613c1.813-5.44,1.28-11.413-1.28-16.533
      c-2.667-5.12-7.253-8.96-12.8-10.56l-27.52-9.067v-98.56c0-23.573-19.093-42.667-42.667-42.667h-64V0h-128v64h-64
      c-23.573,0-42.667,19.093-42.667,42.667v98.56l-27.413,8.96c-5.547,1.707-10.133,5.44-12.8,10.56
      c-2.667,5.12-3.093,11.093-1.28,16.533L62.825,384z M106.665,106.667h256v84.587l-128-41.92l-128,41.92V106.667z"/>
    <path d="M319.998,398.4c-52.053,36.48-118.613,36.48-170.667,0c-26.027,18.24-55.68,28.267-85.333,28.267H21.332v42.667h42.667
      c29.333,0,58.453-7.36,85.333-21.227c53.76,27.627,116.907,27.627,170.667,0c26.88,13.76,56,21.227,85.333,21.227h42.667v-42.667
      h-42.667C375.678,426.667,346.025,416.64,319.998,398.4z"/>
  </g>
</svg>
