<?xml version="1.0" encoding="iso-8859-1"?>
<!DOCTYPE svg PUBLIC "-//W3C//DTD SVG 1.1//EN" "http://www.w3.org/Graphics/SVG/1.1/DTD/svg11.dtd">
<svg version="1.1" id="Capa_1" xmlns="http://www.w3.org/2000/svg" x="0px" y="0px"
     width="21.423px" height="21.423px" viewBox="0 0 21.423 21.423" style="enable-background:new 0 0 21.423 21.423;"
     xml:space="preserve">
  <g>
    <path d="M20.321,10.402c-0.84-1.055-0.507-2.308-0.767-3.443c-0.141-0.609-1.092-0.873-0.8-1.324
      c1.469-2.259-1.52-3.111-1.462-4.901c0.003-0.117-0.399-0.4-0.633-0.162c-0.986,0.999-2.476,0.917-3.554,1.691
      c-0.469,0.334-0.904,0.311-1.417,0.07c0.234-0.445,0.452-0.857,0.669-1.271c-0.837,0.637-1.943,0.602-2.286-0.022
      C9.2-0.553,7.869,0.205,6.558,0.037c1.101,0.487,0.051,1.231,0.378,1.736C7.217,2.207,7.492,2.61,6.865,2.827
      C6.36,3.005,6.482,4.086,5.375,3.519C4.033,2.834,3.462,3.438,3.534,4.96c0.027,0.562-0.04,1.159-0.591,1.469
      c-0.25,0.144-0.414,0.183-0.305,0.52c0.341,1.063,0.113,1.493-0.93,1.69C1.397,8.7,0.885,8.811,1.044,9.03
      c0.831,1.143-0.835,2.559,0.457,3.605c0.148,0.119,0.117,0.315,0.083,0.541c-0.314,2.068,0.405,3.01,2.488,3.37
      c0.449,0.077,0.888,0.223,1.54,0.388c-0.816,0.845-1.025,1.778-1.202,2.74c-0.172,0.933,0.229,1.327,1.067,1.021
      c1.264-0.459,2.433-0.052,3.645,0.138c0.456,0.072,0.923,0.656,0.978,0.584c0.92-1.184,2.285,0.217,3.313-0.634
      c0.493-0.406,1.359-0.438,2.046-0.095c0.819,0.408,0.903,0.102,0.613-0.587c-0.278-0.666-0.324-1.012,0.539-1.438
      c1.694-0.841,1.634-1.015,0.075-2.224c-0.361-0.276-0.79-0.484-1.102-0.809c-0.645-0.673-1.307-1.885-0.661-2.345
      c1.261-0.898,2.895-1.747,4.367-1.736C20.639,11.559,20.5,10.626,20.321,10.402z"/>
  </g>
</svg>
