<?xml version="1.0" encoding="iso-8859-1"?>
<!DOCTYPE svg PUBLIC "-//W3C//DTD SVG 1.1//EN" "http://www.w3.org/Graphics/SVG/1.1/DTD/svg11.dtd">
<svg version="1.1" id="Capa_1" xmlns="http://www.w3.org/2000/svg" x="0px" y="0px"
     width="34.71px" height="34.71px" viewBox="0 0 34.71 34.71" style="enable-background:new 0 0 34.71 34.71;" xml:space="preserve">
  <g>
    <path d="M17.357,1.39C7.787,1.39,0,10.341,0,21.345c0,4.349,1.203,8.488,3.48,11.975l5.023-3.281
      c-1.639-2.508-2.504-5.514-2.504-8.691c0-7.695,5.094-13.955,11.356-13.955s11.356,6.26,11.356,13.955
      c0,3.18-0.865,6.186-2.504,8.691l5.023,3.281c2.276-3.484,3.479-7.626,3.479-11.975C34.714,10.341,26.927,1.39,17.357,1.39z
       M3.321,20.457c-0.584-0.027-1.017-0.97-0.964-2.1c0.052-1.131,0.566-2.023,1.15-1.993c0.584,0.03,1.017,0.972,0.965,2.101
      C4.421,19.594,3.906,20.487,3.321,20.457z M7.427,11.226c-0.655,0.893-1.562,1.307-2.021,0.924
      c-0.461-0.381-0.305-1.415,0.35-2.307C6.412,8.95,7.318,8.536,7.777,8.919C8.238,9.3,8.082,10.334,7.427,11.226z M17.24,6.285
      c-0.812,0-1.471-0.699-1.471-1.562c0-0.864,0.656-1.562,1.471-1.562c0.812,0,1.471,0.698,1.471,1.562
      C18.71,5.585,18.052,6.285,17.24,6.285z M29.309,12.15c-0.461,0.383-1.367-0.031-2.021-0.924s-0.811-1.926-0.35-2.307
      c0.461-0.383,1.364,0.031,2.021,0.924C29.613,10.735,29.77,11.769,29.309,12.15z M31.393,20.457c-0.584,0.03-1.101-0.86-1.15-1.992
      c-0.053-1.129,0.381-2.068,0.965-2.101c0.584-0.03,1.1,0.862,1.15,1.993C32.41,19.487,31.977,20.427,31.393,20.457z"/>
  </g>
</svg>
