<?xml version="1.0" encoding="iso-8859-1"?>
<!-- Generator: Adobe Illustrator 19.0.0, SVG Export Plug-In . SVG Version: 6.00 Build 0)  -->
<svg version="1.1" id="Capa_1" xmlns="http://www.w3.org/2000/svg" xmlns:xlink="http://www.w3.org/1999/xlink" x="0px" y="0px"
	 viewBox="0 0 512.01 512.01" style="enable-background:new 0 0 512.01 512.01;" xml:space="preserve">
<g>
	<g>
		<path d="M397.793,42.837C343.982,7.07,279.38-6.964,215.673,3.252c-1.109,0.021-2.218,0.128-3.327,0.32
			C144.992,15.259,86.212,52.477,46.819,108.356c-39.35,55.901-54.6,123.766-42.933,191.142c1.941,11.112,4.649,22.309,8.062,33.186
			c14.098,45.791,10.621,94.867-9.768,138.184c-3.562,7.507-2.389,16.423,2.965,22.8c5.353,6.377,13.842,9.022,21.946,6.846
			l95.613-26.105c40.481,24.783,86.186,37.601,132.852,37.601c16.956,0,34.039-1.685,51.038-5.119
			c67.034-13.501,124.79-52.275,162.626-109.199C547.345,280.175,515.31,121.004,397.793,42.837z M433.709,374.082
			c-31.544,47.455-79.681,79.767-135.518,91.007c-55.794,11.24-112.697,0.064-160.173-31.501c-3.54-2.346-7.657-3.562-11.816-3.562
			c-1.877,0-3.775,0.256-5.631,0.768l-65.093,17.766c10.984-41.931,10.173-86.336-2.794-128.544
			c-2.879-9.192-5.161-18.555-6.761-27.812c-9.726-56.135,2.986-112.697,35.788-159.278c32.248-45.791,80.129-76.525,135.092-86.784
			c1.024-0.043,2.026-0.149,3.05-0.32c53.939-9.32,108.751,2.261,154.351,32.568C472.142,143.505,498.823,276.144,433.709,374.082z"
			/>
	</g>
</g>
<g>
	<g>
		<path d="M256.089,125.909c-11.794,0-21.328,9.534-21.328,21.328v127.968c0,11.794,9.534,21.328,21.328,21.328
			c11.794,0,21.328-9.555,21.328-21.328V147.237C277.417,135.443,267.884,125.909,256.089,125.909z"/>
	</g>
</g>
<g>
	<g>
		<path d="M275.69,354.524c-1.066-2.773-2.559-5.119-4.479-7.038c-1.066-0.853-2.133-1.92-3.412-2.559
			c-1.066-0.853-2.346-1.472-3.626-1.92c-1.28-0.661-2.559-1.066-4.052-1.28c-6.804-1.493-14.29,0.874-19.174,5.759
			c-1.92,1.919-3.412,4.266-4.479,7.038c-1.066,2.559-1.706,5.332-1.706,8.105c0,2.773,0.64,5.545,1.706,8.105
			c1.066,2.559,2.559,4.905,4.479,7.038c2.133,1.919,4.479,3.412,7.038,4.479c2.559,1.066,5.332,1.706,8.105,1.706
			c2.773,0,5.524-0.64,8.083-1.706c2.559-1.066,4.884-2.559,7.038-4.479c1.92-2.133,3.412-4.479,4.479-7.038
			c1.066-2.559,1.706-5.332,1.706-8.105C277.396,359.856,276.756,357.083,275.69,354.524z"/>
	</g>
</g>
<g>
</g>
<g>
</g>
<g>
</g>
<g>
</g>
<g>
</g>
<g>
</g>
<g>
</g>
<g>
</g>
<g>
</g>
<g>
</g>
<g>
</g>
<g>
</g>
<g>
</g>
<g>
</g>
<g>
</g>
</svg>
