<?xml version="1.0" encoding="iso-8859-1"?>
<!-- Generator: Adobe Illustrator 18.1.1, SVG Export Plug-In . SVG Version: 6.00 Build 0)  -->
<svg version="1.1" id="Capa_1" xmlns="http://www.w3.org/2000/svg" xmlns:xlink="http://www.w3.org/1999/xlink" x="0px" y="0px"
	 viewBox="0 0 525.153 525.153" style="enable-background:new 0 0 525.153 525.153;" xml:space="preserve">
<g>
	<path d="M298.702,86.716c23.851,0,43.347-19.496,43.347-43.303C342.071,19.299,322.575,0,298.702,0
		c-24.091,0-43.347,19.54-43.347,43.391C255.355,67.22,274.611,86.716,298.702,86.716z M301.591,236.078h117.569v-43.347h-87.197
		l-48.183-80.239c-7.221-12.035-20.218-20-35.185-20c-4.07,0-8.162,0.766-11.794,1.729l-130.807,40.656v125.293h43.347v-88.379
		l50.852-15.908l-94.199,369.27h43.347l69.145-195.357l56.126,74.9v120.457h43.347V370.736l-59.977-109.363l17.593-69.123
		L301.591,236.078z"/>
</g>
<g>
</g>
<g>
</g>
<g>
</g>
<g>
</g>
<g>
</g>
<g>
</g>
<g>
</g>
<g>
</g>
<g>
</g>
<g>
</g>
<g>
</g>
<g>
</g>
<g>
</g>
<g>
</g>
<g>
</g>
</svg>
