<?xml version="1.0" encoding="UTF-8"?>
<svg viewBox="0 0 492 492" xmlns="http://www.w3.org/2000/svg">
  <path d="m168.5 122c12.333 0 23-4.5 32-13.5s13.5-19.667 13.5-32-4.5-23-13.5-32-19.667-13.5-32-13.5-23 4.5-32 13.5-13.5 19.667-13.5 32 4.5 23 13.5 32 19.667 13.5 32 13.5z"/>
  <path d="m0 371c10.667 0 20.667-2.333 30-7 10-4.667 20.5-7 31.5-7s21.5 2.333 31.5 7c9.333 4.667 19.333 7 30 7s20.667-2.333 30-7c10-4.667 20.667-7 32-7 10.667 0 21 2.333 31 7 9.333 4.667 19.333 7 30 7s20.667-2.333 30-7c10-4.667 20.5-7 31.5-7s21.5 2.333 31.5 7c9.333 4.667 19.333 7 30 7s20.667-2.333 30-7c10-4.667 20.333-7 31-7 9.333 0 18.333 1.667 27 5 14.667-16 22-34.667 22-56 0-22.667-8-42.167-24-58.5s-35.667-24.5-59-24.5l-9 1c-3.333 12.667-9.167 22.5-17.5 29.5s-16.167 11.167-23.5 12.5l-11 1h-189l-16-9 38-64 42 24c8 4.667 14.833 6.5 20.5 5.5s10.167-3.167 13.5-6.5l4-5 42-69c6-9.333 6.833-17.833 2.5-25.5s-10.667-11.333-19-11-15.833 4.833-22.5 13.5l-29 48-70-39c-16-7.339-29-9.672-39-7-10 2.669-17.667 7.336-23 14l-7 11-55 93c-2.667 6-4 11.333-4 16s0.5 7.833 1.5 9.5l1.5 2.5h-27v103z"/>
  <path d="m492 461c-10.667 0-20.667-2-30-6-10-4.667-20.5-7-31.5-7s-21.5 2.333-31.5 7c-9.333 4-19.333 6-30 6s-20.667-2-30-6c-10-4.667-20.5-7-31.5-7s-21.5 2.333-31.5 7c-9.333 4-19.333 6-30 6s-20.667-2-30-6c-10-4.667-20.333-7-31-7-11.333 0-22 2.333-32 7-9.333 4-19.333 6-30 6s-20.667-2-30-6c-10-4.667-20.5-7-31.5-7s-21.5 2.333-31.5 7c-9.333 4-19.333 6-30 6v-45c10.667 0 20.667-2.333 30-7 10-4.667 20.5-7 31.5-7s21.5 2.333 31.5 7 20.167 7 30.5 7 20.167-2.333 29.5-7c10-4.667 20.667-7 32-7 10.667 0 21 2.333 31 7 9.333 4.667 19.333 7 30 7s20.667-2.333 30-7c10-4.667 20.5-7 31.5-7s21.5 2.333 31.5 7c9.333 4.667 19.333 7 30 7s20.667-2.333 30-7c10-4.667 20.333-7 31-7s21.333 2.333 32 7c9.333 4.667 19.333 7 30 7v45z"/>
</svg>
