<?xml version="1.0" encoding="UTF-8"?>
<svg viewBox="0 0 612 612" xmlns="http://www.w3.org/2000/svg">
  <path d="m408 132.6c25.5 0 45.9-20.4 45.9-45.9s-20.4-45.9-45.9-45.9-45.9 20.4-45.9 45.9 20.4 45.9 45.9 45.9zm76.5 183.6c-71.4 0-127.5 56.1-127.5 127.5s56.1 127.5 127.5 127.5 127.5-56.099 127.5-127.5-56.1-127.5-127.5-127.5zm0 216.75c-48.45 0-89.25-40.801-89.25-89.25 0-48.451 40.8-89.25 89.25-89.25s89.25 40.799 89.25 89.25c0 48.449-40.8 89.25-89.25 89.25zm-107.1-267.75h107.1v-45.9h-81.6l-48.45-84.15c-7.65-12.75-20.4-20.4-38.25-20.4-12.75 0-22.95 5.1-30.6 12.75l-94.35 94.35c-7.65 7.65-12.75 17.85-12.75 30.6 0 15.3 7.65 30.6 20.4 38.25l86.7 51v127.5h45.9v-165.75l-56.1-43.35 58.65-58.65 43.35 63.75zm-249.9 51c-71.4 0-127.5 56.1-127.5 127.5s56.1 127.5 127.5 127.5 127.5-56.099 127.5-127.5-56.1-127.5-127.5-127.5zm0 216.75c-48.45 0-89.25-40.801-89.25-89.25 0-48.451 40.8-89.25 89.25-89.25s89.25 40.799 89.25 89.25c0 48.449-40.8 89.25-89.25 89.25z"/>
</svg>
