<?xml version="1.0" encoding="UTF-8"?>
<svg viewBox="0 0 21.423 21.423" xmlns="http://www.w3.org/2000/svg">
  <path d="m20.321 10.402c-0.84-1.055-0.507-2.308-0.767-3.443-0.141-0.609-1.092-0.873-0.8-1.324 1.469-2.259-1.52-3.111-1.462-4.901 3e-3 -0.117-0.399-0.4-0.633-0.162-0.986 0.999-2.476 0.917-3.554 1.691-0.469 0.334-0.904 0.311-1.417 0.07 0.234-0.445 0.452-0.857 0.669-1.271-0.837 0.637-1.943 0.602-2.286-0.022-0.871-1.593-2.202-0.835-3.513-1.003 1.101 0.487 0.051 1.231 0.378 1.736 0.281 0.434 0.556 0.837-0.071 1.054-0.505 0.178-0.383 1.259-1.49 0.692-1.342-0.685-1.913-0.081-1.841 1.441 0.027 0.562-0.04 1.159-0.591 1.469-0.25 0.144-0.414 0.183-0.305 0.52 0.341 1.063 0.113 1.493-0.93 1.69-0.311 0.061-0.823 0.172-0.664 0.391 0.831 1.143-0.835 2.559 0.457 3.605 0.148 0.119 0.117 0.315 0.083 0.541-0.314 2.068 0.405 3.01 2.488 3.37 0.449 0.077 0.888 0.223 1.54 0.388-0.816 0.845-1.025 1.778-1.202 2.74-0.172 0.933 0.229 1.327 1.067 1.021 1.264-0.459 2.433-0.052 3.645 0.138 0.456 0.072 0.923 0.656 0.978 0.584 0.92-1.184 2.285 0.217 3.313-0.634 0.493-0.406 1.359-0.438 2.046-0.095 0.819 0.408 0.903 0.102 0.613-0.587-0.278-0.666-0.324-1.012 0.539-1.438 1.694-0.841 1.634-1.015 0.075-2.224-0.361-0.276-0.79-0.484-1.102-0.809-0.645-0.673-1.307-1.885-0.661-2.345 1.261-0.898 2.895-1.747 4.367-1.736 1.349 0.01 1.21-0.923 1.031-1.147z"/>
</svg>
