<?xml version="1.0" encoding="UTF-8"?>
<svg viewBox="0 0 34.71 34.71" xmlns="http://www.w3.org/2000/svg">
  <path d="m17.357 1.39c-9.57 0-17.357 8.951-17.357 19.955 0 4.349 1.203 8.488 3.48 11.975l5.023-3.281c-1.639-2.508-2.504-5.514-2.504-8.691 0-7.695 5.094-13.955 11.356-13.955s11.356 6.26 11.356 13.955c0 3.18-0.865 6.186-2.504 8.691l5.023 3.281c2.276-3.484 3.479-7.626 3.479-11.975 5e-3 -11.004-7.782-19.955-17.352-19.955zm-14.036 19.067c-0.584-0.027-1.017-0.97-0.964-2.1 0.052-1.131 0.566-2.023 1.15-1.993s1.017 0.972 0.965 2.101c-0.051 1.129-0.566 2.022-1.151 1.992zm4.106-9.231c-0.655 0.893-1.562 1.307-2.021 0.924-0.461-0.381-0.305-1.415 0.35-2.307 0.656-0.893 1.562-1.307 2.021-0.924 0.461 0.381 0.305 1.415-0.35 2.307zm9.813-4.941c-0.812 0-1.471-0.699-1.471-1.562 0-0.864 0.656-1.562 1.471-1.562 0.812 0 1.471 0.698 1.471 1.562-1e-3 0.862-0.659 1.562-1.471 1.562zm12.069 5.865c-0.461 0.383-1.367-0.031-2.021-0.924s-0.811-1.926-0.35-2.307c0.461-0.383 1.364 0.031 2.021 0.924 0.654 0.892 0.811 1.926 0.35 2.307zm2.084 8.307c-0.584 0.03-1.101-0.86-1.15-1.992-0.053-1.129 0.381-2.068 0.965-2.101 0.584-0.03 1.1 0.862 1.15 1.993 0.052 1.13-0.381 2.07-0.965 2.1z"/>
</svg>
