<?xml version="1.0" encoding="UTF-8"?>
<svg viewBox="0 0 473.94 473.94" xmlns="http://www.w3.org/2000/svg">
  <circle cx="236.97" cy="236.97" r="236.97" fill="#a7ff00"/>
  <g fill="#333">
    <circle cx="164.94" cy="207.63" r="37.216"/>
    <ellipse cx="313.64" cy="188.32" rx="37.216" ry="56.501"/>
    <path d="m195.35 102.72c-12.456 14.571-24.909 29.137-37.365 43.708h13.227c-25.141-20.176-50.282-40.351-75.423-60.527-9.31-7.472-22.642 5.676-13.227 13.227 25.141 20.176 50.282 40.351 75.423 60.527 3.719 2.986 9.658 4.176 13.227 0 12.456-14.571 24.909-29.137 37.365-43.708 7.794-9.115-5.373-22.414-13.227-13.227z"/>
    <path d="m280.43 124.75c12.456-14.571 24.913-29.137 37.366-43.708h-13.227c25.141 20.176 50.282 40.351 75.423 60.527 9.31 7.472 22.642-5.676 13.227-13.227-25.141-20.176-50.282-40.351-75.423-60.527-3.719-2.986-9.658-4.176-13.227 0-12.456 14.571-24.913 29.137-37.366 43.708-7.794 9.115 5.377 22.414 13.227 13.227z"/>
    <path d="m178.46 386.72h112.74c12.067 0 12.067-18.709 0-18.709h-112.74c-12.063 0-12.063 18.709 0 18.709z"/>
  </g>
</svg>
