<?xml version="1.0" encoding="UTF-8"?>
<svg viewBox="0 0 188.11 188.11" xmlns="http://www.w3.org/2000/svg">
  <path d="m94.052 0c-51.862 1e-3 -94.052 42.194-94.051 94.055 0 51.862 42.191 94.056 94.051 94.057 51.864-1e-3 94.059-42.194 94.059-94.056-1e-3 -51.863-42.195-94.056-94.059-94.056zm0 173.11c-43.589-1e-3 -79.051-35.465-79.051-79.057-1e-3 -43.59 35.461-79.053 79.051-79.054 43.593 0 79.059 35.464 79.059 79.056-1e-3 43.59-35.466 79.054-79.059 79.055z"/>
  <path d="m94.053 50.851c-23.821 2e-3 -43.202 19.384-43.202 43.204 0 23.824 19.381 43.206 43.203 43.206 23.823 0 43.205-19.382 43.205-43.205 0-23.824-19.382-43.205-43.206-43.205zm1e-3 71.41c-15.551 0-28.203-12.653-28.203-28.206 0-15.55 12.652-28.203 28.203-28.204 15.553 0 28.205 12.653 28.205 28.205s-12.653 28.205-28.205 28.205z"/>
  <circle cx="94.055" cy="94.056" r="16.229"/>
</svg>
