<?xml version="1.0" encoding="UTF-8" standalone="no"?>
<svg
  viewBox="0 0 12 12"
  width="12"
  height="12"
  xmlns="http://www.w3.org/2000/svg">
  <path
    d="m 12,7 v 3.67 A 1.33,1.33 0 0 1 10.67,12 H 1.33 A 1.33,1.33 0 0 1 0,10.67 V 1.33 A 1.33,1.33 0 0 1 1.33,0 H 5 A 0.33,0.33 0 0 1 5.33,0.33 V 1 A 0.33,0.33 0 0 1 5,1.33 H 1.33 v 9.33 h 9.33 V 7 A 0.33,0.33 0 0 1 11,6.67 h 0.67 A 0.33,0.33 0 0 1 12,7 Z m -0.15,-6.67 -0.18,-0.18 A 0.5,0.5 0 0 0 11.33,0 H 7 A 0.33,0.33 0 0 0 6.67,0.33 V 1 A 0.33,0.33 0 0 0 7,1.33 H 9.73 L 4.1,6.96 a 0.33,0.33 0 0 0 0,0.47 l 0.47,0.47 a 0.33,0.33 0 0 0 0.47,0 L 10.67,2.28 V 5 A 0.33,0.33 0 0 0 11,5.33 h 0.67 A 0.33,0.33 0 0 0 12,5 V 0.67 A 0.5,0.5 0 0 0 11.85,0.32 Z"
     />
</svg>
