<?xml version="1.0" encoding="UTF-8"?>
<svg viewBox="0 0 512 512" xmlns="http://www.w3.org/2000/svg">
  <path d="M480,288v112c0,44.183-35.817,80-80,80H112c-44.183,0-80-35.817-80-80V112c0-44.183,35.817-80,80-80h96V0h-96     C50.144,0,0,50.144,0,112v288c0,61.856,50.144,112,112,112h288c61.856,0,112-50.144,112-112V288H480z"/>
  <path d="m176 416h32v-128c0-125.76 107.52-128 112-128h105.44l-84.64 84.64 22.56 22.56 112-112c6.204-6.241 6.204-16.319 0-22.56l-112-112-22.72 22.72 84.8 84.64h-105.44c-1.44 0-144 1.76-144 160v128z"/>
</svg>
