<?xml version="1.0" encoding="UTF-8"?>
<svg width="30pt" height="30pt" viewBox="0 0 30 30" xmlns="http://www.w3.org/2000/svg">
  <path d="m25.844 22.375c-0.80078-1.3945-2.0781-2.418-3.5039-2.8047-0.96875-0.26562-1.9531-0.21484-2.8086 0.13281l-2.5117-4.3945c2.2305-4.1016 5.5391-10.164 5.957-10.895 1.0195-1.7852-0.65625-3.7656-0.72656-3.8477l-0.48828-0.56641-6.7461 11.801-6.75-11.801-0.48438 0.56641c-0.074219 0.082032-1.75 2.0625-0.73047 3.8477 0.41797 0.73047 3.7266 6.793 5.9609 10.895l-2.5156 4.3945c-0.85547-0.34766-1.8398-0.39844-2.8086-0.13281-1.4258 0.38672-2.7031 1.4102-3.5039 2.8086-1.5039 2.6289-0.89844 5.8164 1.3516 7.1055 0.62891 0.35938 1.3281 0.54297 2.0703 0.54297 0.41016 0 0.83594-0.03125 1.2383-0.16797 2.4141-0.82031 3.6484-2.793 4.2383-4.8164 0.027344-0.089844 1.2188-4.9102 1.8828-5.9609 0 0 0.019531-0.039062 0.050781-0.09375 0.027344 0.054688 0.050781 0.09375 0.050781 0.09375 0.66406 1.0508 1.8555 5.8711 1.8789 5.9609 0.58984 2.0234 1.8281 3.9961 4.2383 4.8164 0.40625 0.13672 0.82812 0.16797 1.2383 0.16797 0.74609 0 1.4414-0.18359 2.0703-0.54297 2.25-1.2891 2.8555-4.4766 1.3516-7.1094zm-15.445 3.5625c-0.5 0.87109-1.3008 1.5273-2.1406 1.7578-0.22266 0.058594-0.4375 0.089844-0.64844 0.089844-0.34766 0-0.67188-0.085937-0.95703-0.25-1.1758-0.67188-1.4102-2.4883-0.51953-4.043 0.50781-0.88672 1.2891-1.5234 2.1406-1.7578 0.58203-0.15625 1.1445-0.10547 1.6055 0.15625 1.1758 0.67578 1.4102 2.4883 0.51953 4.0469zm12.977 1.5977c-0.28516 0.16406-0.60938 0.25-0.95703 0.25-0.20703 0-0.42578-0.03125-0.64844-0.089844-0.83984-0.23047-1.6406-0.88672-2.1406-1.7578-0.89062-1.5586-0.65625-3.3711 0.51953-4.043 0.46094-0.26562 1.0234-0.31641 1.6055-0.15625 0.85156 0.23047 1.6328 0.87109 2.1406 1.7539 0.89062 1.5586 0.65625 3.3711-0.51953 4.043z" fill="#ccc"/>
</svg>
