<?xml version="1.0" encoding="UTF-8"?>
<svg width="512pt" height="512pt" viewBox="0 0 512 512" xmlns="http://www.w3.org/2000/svg">
  <path d="m256 0.0039062c-62.676 0-123.61 23.082-171.09 62.27l-57.598-57.598c-4.5859-4.5664-11.457-5.9336-17.43-3.457-5.9727 2.4727-9.8789 8.2969-9.8789 14.785v138.66c0 8.832 7.168 16 16 16h138.67c6.4844 0 12.309-3.9023 14.785-9.875 2.4727-5.9727 1.1094-12.844-3.4805-17.43l-50.75-50.773c39.445-31.426 89.363-49.922 140.78-49.922 117.63 0 213.34 95.703 213.34 213.34 0 117.63-95.703 213.33-213.34 213.33-56.938 0-110.5-22.207-150.8-62.527-8.3398-8.3438-21.824-8.3438-30.164 0-8.3438 8.3398-8.3438 21.824 0 30.164 48.363 48.383 112.64 75.031 180.97 75.031 141.16 0 256-114.84 256-256 0-141.16-114.84-256-256-256z"/>
</svg>
