<?xml version="1.0" encoding="iso-8859-1"?>
<svg xmlns="http://www.w3.org/2000/svg" x="0px" y="0px"
     viewBox="0 0 266.514 266.514" style="enable-background:new 0 0 266.514 266.514;" xml:space="preserve">
	<g>
		<path d="M0,40.794c0,61.641,0,123.287,0,184.928c90.794,34.495,175.72-34.495,266.514,0
			c0-61.641,0-123.287,0-184.928C175.72,6.294,90.794,75.289,0,40.794z M48.952,220.985c-15.229-0.702-22.844-1.855-38.073-7.19
			c0-13.054,0-19.581,0-32.634c15.229,5.336,22.844,6.489,38.073,7.19C48.952,201.404,48.952,207.931,48.952,220.985z
			 M48.952,101.325c-15.229-0.702-22.844-1.855-38.073-7.19c0-13.054,0-19.581,0-32.634c15.229,5.336,22.844,6.489,38.073,7.19
			C48.952,81.745,48.952,88.272,48.952,101.325z M119.659,212.489c-15.229,3.378-22.844,5.058-38.073,6.973
			c0-13.054,0-19.581,0-32.634c15.229-1.915,22.844-3.595,38.073-6.973C119.659,192.903,119.659,199.435,119.659,212.489z
			 M119.659,92.83c-15.229,3.378-22.844,5.058-38.073,6.973c0-13.054,0-19.581,0-32.634c15.229-1.915,22.844-3.595,38.073-6.973
			C119.659,73.244,119.659,79.776,119.659,92.83z M184.928,199.354c-16.317,1.915-22.844,3.595-38.073,6.973
			c0-13.054,0-19.581,0-32.634c15.229-3.378,21.756-5.058,38.073-6.973C184.928,179.773,184.928,186.3,184.928,199.354z
			 M146.855,86.662c0-13.054,0-19.581,0-32.634c15.229-3.378,22.844-5.058,38.073-6.973c0,13.054,0,19.581,0,32.634
			C169.699,81.609,162.084,83.284,146.855,86.662z M217.563,45.531c16.317,0.702,21.756,1.855,38.073,7.19
			c0,13.054,0,19.581,0,32.634c-16.317-5.336-21.756-6.489-38.073-7.19C217.563,65.112,217.563,58.585,217.563,45.531z
			 M217.563,165.191c16.317,0.702,21.756,1.855,38.073,7.19c0,13.054,0,19.581,0,32.634c-16.317-5.336-21.756-6.489-38.073-7.19
			C217.563,184.772,217.563,178.245,217.563,165.191z"/>
	</g>
</svg>
