<?xml version="1.0" encoding="iso-8859-1"?>
<!DOCTYPE svg PUBLIC "-//W3C//DTD SVG 1.1//EN" "http://www.w3.org/Graphics/SVG/1.1/DTD/svg11.dtd">
<svg version="1.1" xmlns="http://www.w3.org/2000/svg" x="0px" y="0px"
     width="21.159px" height="21.159px" viewBox="0 0 21.159 21.159" style="enable-background:new 0 0 21.159 21.159;"
     xml:space="preserve">
  <g>
    <path d="M4.317,13.798c1.174-0.686,2.355-1.273,3.411,0.207c0.212,0.295,0.536,0.417,0.898,0.422
      c2.295,0.033,4.581,1.584,6.896,0.047c0.138-0.095,0.385-0.016,0.58-0.03c2.235-0.157,3.224-1.112,3.616-3.489
      c-0.015,0.005-0.026,0.01-0.042,0.015c-0.003,0.002,0.044-0.026,0.044-0.026c0,0.005-0.002,0.007-0.002,0.012
      c0.814-0.245,1.373-0.594,1.437-1.152c0.011-0.092-0.002-0.193-0.021-0.297C21.13,9.485,21.135,9.464,21.13,9.44
      c-0.027-0.12-0.077-0.252-0.145-0.392c-0.004-0.009-0.005-0.017-0.01-0.026c-0.074-0.149-0.173-0.308-0.296-0.478
      c-0.116-0.161-0.104-0.472-0.052-0.688c0.216-0.884-0.495-1.134-0.998-1.076c-1.177,0.135-2.17-0.36-3.237-0.622
      c-0.593-0.146-1.199-0.417-1.599,0.521c-0.257,0.604-1.204,1.047-1.733,0.667c-0.812-0.583-1.375-0.225-1.864,0.193
      c-0.612,0.519-1.371,0.859-1.906,1.376c-0.7,0.672,0.363,1.389,0.413,2.138c0.002,0.033-0.063,0.069-0.211,0.23
      C9,10.613,8.256,10.549,7.509,10.646c-1.462,0.192-2.813,1.333-4.406,0.485c-0.146-0.076-0.587,0.061-0.635,0.189
      c-0.301,0.825-0.621,0.517-1.027,0.096c-0.332-0.344-0.865-0.518-1.145-0.119c-0.242,0.343-0.436,0.887-0.163,1.378
      C0.5,13.342,3.679,14.17,4.317,13.798z"/>
  </g>
</svg>
