<?xml version="1.0" encoding="UTF-8"?>
<svg viewBox="0 0 21.159 21.159" xmlns="http://www.w3.org/2000/svg">
  <path d="m4.317 13.798c1.174-0.686 2.355-1.273 3.411 0.207 0.212 0.295 0.536 0.417 0.898 0.422 2.295 0.033 4.581 1.584 6.896 0.047 0.138-0.095 0.385-0.016 0.58-0.03 2.235-0.157 3.224-1.112 3.616-3.489-0.015 5e-3 -0.026 0.01-0.042 0.015-3e-3 2e-3 0.044-0.026 0.044-0.026 0 5e-3 -2e-3 7e-3 -2e-3 0.012 0.814-0.245 1.373-0.594 1.437-1.152 0.011-0.092-2e-3 -0.193-0.021-0.297-4e-3 -0.022 1e-3 -0.043-4e-3 -0.067-0.027-0.12-0.077-0.252-0.145-0.392-4e-3 -9e-3 -5e-3 -0.017-0.01-0.026-0.074-0.149-0.173-0.308-0.296-0.478-0.116-0.161-0.104-0.472-0.052-0.688 0.216-0.884-0.495-1.134-0.998-1.076-1.177 0.135-2.17-0.36-3.237-0.622-0.593-0.146-1.199-0.417-1.599 0.521-0.257 0.604-1.204 1.047-1.733 0.667-0.812-0.583-1.375-0.225-1.864 0.193-0.612 0.519-1.371 0.859-1.906 1.376-0.7 0.672 0.363 1.389 0.413 2.138 2e-3 0.033-0.063 0.069-0.211 0.23-0.492-0.67-1.236-0.734-1.983-0.637-1.462 0.192-2.813 1.333-4.406 0.485-0.146-0.076-0.587 0.061-0.635 0.189-0.301 0.825-0.621 0.517-1.027 0.096-0.332-0.344-0.865-0.518-1.145-0.119-0.242 0.343-0.436 0.887-0.163 1.378 0.367 0.667 3.546 1.495 4.184 1.123z"/>
</svg>
