<?xml version="1.0" encoding="UTF-8"?>
<svg viewBox="0 0 21.013 21.013" xmlns="http://www.w3.org/2000/svg">
  <path d="m20.896 10.687c-0.825-1.417-1.865-2.526-3.721-2.549 0.314-0.622 0.584-1.116 0.816-1.63 0.145-0.319 0.263-0.793-0.163-0.879-0.8-0.164-1.283-1.095-2.236-0.852-0.52 0.132-1.126-0.053-1.277-0.505-0.438-1.317-1.606-0.713-2.351-0.853-1.226-0.23-2.376 0.441-3.348 1.274-0.385 0.331-3.645 0.329-3.806-0.056-0.379-0.9-0.93-0.497-1.425-0.297-0.769 0.307-1.475 0.79-2.259 1.032-1.298 0.401-1.317 1.241-0.841 2.205 0.415 0.841 0.956 1.69 2.146 1.15 0.545-0.245 1.075-0.207 1.179 0.392 0.186 1.062 0.769 1.474 1.775 1.481 0.413 5e-3 0.564 0.271 0.637 0.663 0.082 0.442 0.28 0.484 0.813 0.415 1.552-0.208 2.162 0.354 2.039 1.917-0.056 0.718 0.146 0.831 0.713 0.897 1.18 0.141 2.147-0.193 2.841-1.293-0.014 0.967-0.183 2.03 0.694 2.414 1.042 0.457 2.005 0.932 2.844 1.708 0.643 0.596 1.462 0.224 2.039-0.066 0.689-0.347 0.276-0.966-0.028-1.514-0.551-0.981 0.156-2.403 1.295-2.729 1.218-0.345 2.061-1.573 1.624-2.325z"/>
</svg>
