<?xml version="1.0" encoding="UTF-8"?>
<svg viewBox="0 0 215 248" xmlns="http://www.w3.org/2000/svg">
  <path d="M118.128242,13.122040
  C114.205734,20.593491 115.236877,28.085951 117.733528,35.727814
	C120.288193,43.547211 117.478874,50.479324 113.284294,56.933163
	C111.263390,60.042534 110.136330,60.065895 100.582977,58.768375
	C101.915108,61.979462 102.993668,64.808762 104.259018,67.551910
	C105.159355,69.503746 106.535988,71.252335 107.308662,73.243515
	C109.610855,79.176231 108.358551,81.623932 102.154808,83.668175
	C102.452797,84.069481 102.718513,84.747749 102.994720,84.752045
	C108.633453,84.839729 110.898819,87.945763 110.801231,93.271561
	C110.718689,97.775734 113.325523,98.860985 117.303284,98.611893
	C120.940910,98.384094 124.666229,98.085480 128.237167,98.608437
	C133.608032,99.394989 135.182831,102.611908 132.984970,107.633659
	C131.523376,110.973183 129.775406,114.202568 127.959061,117.368492
	C124.037300,124.204201 123.985527,124.174500 115.701927,121.823402
	C116.010880,120.130722 116.326248,118.402885 116.638947,116.689697
	C111.670990,113.914055 106.451614,116.428398 105.947189,122.184586
	C105.677467,125.262527 106.348083,128.454529 106.823608,131.559952
	C108.061241,139.642487 105.314880,142.102615 97.633713,139.643784
	C97.159645,139.492035 96.697449,139.120346 96.238815,139.135010
	C94.265388,139.198151 92.295349,139.367386 90.324081,139.497986
	C91.380348,141.151291 92.431175,142.808090 93.494415,144.456894
	C94.581337,146.142380 95.680428,147.820038 96.774185,149.501114
	C94.838585,150.466827 92.948143,152.119431 90.957664,152.250275
	C87.215607,152.496246 83.415787,151.863510 79.143593,151.561005
	C79.698883,152.432419 79.855820,152.889328 80.174057,153.147171
	C87.133003,158.785522 86.874565,160.928558 78.659302,165.119308
	C77.198517,165.864502 75.669601,166.476105 73.358162,167.515381
	C78.993294,168.674957 80.961792,171.217392 78.857086,176.306610
	C78.299179,177.655624 79.453049,179.712601 79.893188,181.784637
	C78.825790,182.687134 77.589317,183.732574 76.352837,184.778030
	C76.826889,184.942703 77.300934,185.107391 77.774979,185.272079
	C77.069366,188.050858 76.914925,191.145584 75.541496,193.541565
	C72.821243,198.287125 72.866646,199.309708 77.341560,202.418045
	C79.416344,203.859222 81.148643,205.793488 83.036224,207.504196
	C80.777985,209.043350 78.621819,210.771378 76.230217,212.063705
	C74.205299,213.157883 71.884445,213.690628 69.735970,214.572693
	C64.773735,216.609909 60.488762,216.338501 56.873821,211.733612
	C53.909935,207.958084 49.605640,207.635727 45.083942,207.783676
	C36.424957,208.066971 34.040985,204.534439 37.068027,196.291275
	C38.097412,193.488068 39.436146,190.788040 40.316666,187.942795
	C42.088596,182.217117 40.649227,177.022964 36.791233,172.634277
	C33.399586,168.776062 29.659460,165.224182 25.618792,161.069778
	C25.985918,160.825394 25.226486,161.118469 24.779818,161.666458
	C23.179640,163.629639 21.611044,165.265427 19.093775,162.887543
	C16.924683,160.838577 14.879548,158.525986 17.057877,155.567947
	C20.090029,151.450424 22.528296,147.347717 22.202982,141.919952
	C22.140038,140.869751 24.018517,139.350113 25.323425,138.632645
	C30.715122,135.668152 31.991693,131.157867 27.069036,127.951912
	C16.791979,121.258797 18.334377,112.312271 20.451233,102.733238
	C22.132532,95.125153 23.394976,87.424683 25.064758,79.813789
	C25.587170,77.432632 26.611639,75.089943 27.789709,72.939705
	C30.021704,68.865829 32.774570,65.067268 34.870209,60.930988
	C38.370792,54.021679 44.055515,51.266861 51.478558,51.084003
	C59.803486,50.878929 68.122360,50.384018 76.447617,50.252239
	C81.530548,50.171783 84.588524,47.589325 86.101875,43.091419
	C87.528236,38.852058 88.683891,34.508926 89.723427,30.155281
	C91.063034,24.544939 94.553886,21.601988 100.000168,19.826811
	C105.778641,17.943361 111.222786,15.034216 117.310699,12.684204
	C117.808464,12.795403 118.128242,13.122040 118.128242,13.122040 z" />
  <path d="M169.799591,154.812088
	C171.119064,155.272537 172.011932,155.701416 172.904419,156.131058
	C176.975815,158.091003 180.441727,156.365036 179.741486,151.958267
	C178.847595,146.332642 180.366653,139.880356 175.310532,135.251419
	C174.805908,134.789429 174.793915,133.331650 175.086319,132.530579
	C177.082169,127.062607 186.203583,124.130592 191.018082,127.286957
	C192.117279,128.007584 193.254684,128.762283 194.484161,129.173050
	C197.267075,130.102814 198.061203,131.901855 198.306198,134.787231
	C198.633057,138.636612 199.801163,142.420395 200.681000,146.215408
	C201.647827,150.385574 202.845703,154.512268 203.535034,158.724655
	C203.627426,159.289276 201.320724,160.931534 200.147202,160.909180
	C191.296707,160.740570 188.448593,162.368607 185.579666,170.439133
	C185.209396,171.480682 186.169266,173.523468 187.146423,174.379044
	C188.312698,175.400192 190.300858,175.418930 191.677765,176.280029
	C193.259308,177.269089 195.651337,178.663605 195.700668,179.957840
	C195.758484,181.474869 193.984451,183.563766 192.453552,184.538757
	C188.838242,186.841278 184.896042,188.630539 182.070618,190.111359
	C181.811829,194.726273 182.034897,198.681946 181.240875,202.421677
	C180.594467,205.466019 174.072876,205.534515 171.405350,202.221039
	C168.375946,198.457993 166.030441,194.144409 162.785858,189.142441
	C158.614853,188.859131 152.661499,188.454742 147.610077,188.111618
	C145.458298,185.144211 143.314743,182.188141 140.934631,178.905838
	C144.736603,175.537262 145.350433,172.202652 140.489365,169.057388
	C139.738449,168.571518 139.055222,166.716202 139.398254,166.002625
	C142.393097,159.772980 137.831100,156.929123 134.121735,153.690353
	C133.625107,153.256729 132.932907,153.047119 131.179840,152.134064
	C134.771011,151.255295 136.931976,150.044830 138.800903,150.394653
	C144.849930,151.526917 148.556870,147.611298 152.395798,144.393936
	C153.883316,143.147263 154.042435,140.315536 154.806702,138.205902
	C154.516037,137.770203 154.225372,137.334488 153.934708,136.898773
	C157.516907,136.592987 161.099121,136.287186 165.627075,135.900665
	C163.543777,141.053513 161.864380,145.207352 160.038696,149.723022
	C161.885101,149.723022 163.579987,149.723022 165.242203,149.723022
	C167.337402,150.880966 164.471100,156.021378 169.799591,154.812088z" />
  <path d="M111.990555,162.865204
	C112.142120,164.567169 112.555626,166.176788 111.971390,167.236160
	C108.965836,172.686005 108.894485,172.684677 115.683029,175.198715
	C116.945618,171.351822 118.203423,167.519531 119.444138,163.739319
	C129.326401,169.550369 129.646255,198.364182 119.449600,206.843826
	C115.083984,199.146530 106.632927,198.675552 99.278992,195.236572
	C99.932442,190.774429 96.896370,189.004990 92.790398,188.168854
	C89.676987,187.534866 87.862267,185.870682 87.665237,182.426620
	C87.543930,180.306122 86.639793,178.240723 86.212402,176.125275
	C85.304367,171.630844 86.434715,168.495041 91.340408,166.922745
	C95.839882,165.480652 99.966782,162.838440 104.490112,161.524811
	C106.646072,160.898682 109.341301,162.129425 111.990555,162.865204z" />
  <path d="M173.014496,210.175446
	C174.193069,210.499924 175.064651,210.563583 175.785431,210.926651
	C177.859024,211.971191 179.871689,213.136719 181.908264,214.254700
	C180.640198,215.843445 179.141068,217.303055 178.162918,219.053772
	C176.954407,221.216721 175.752319,223.548508 175.342209,225.943420
	C174.969666,228.118958 175.662140,230.476883 175.949905,233.416153
	C174.519470,232.808258 173.213257,232.667664 172.978439,232.090897
	C169.676300,223.979721 162.932373,227.360687 157.210846,227.157013
	C155.286377,227.088501 152.574631,227.046951 151.620834,225.864899
	C148.528366,222.032471 144.554672,221.283035 140.128464,221.063858
	C138.431305,220.979813 136.752258,220.529770 134.142090,220.091568
	C136.682693,218.149338 138.350555,216.874313 140.009079,215.606415
	C138.781021,213.652054 133.822601,213.830139 136.877869,209.884949
	C139.308289,206.746597 144.018280,206.187515 146.605316,208.587601
	C147.447250,209.368713 148.033188,210.418762 148.791580,211.298065
	C152.544678,215.649719 155.504990,215.936142 160.015274,212.465439
	C163.808395,209.546600 167.476120,205.857819 173.014496,210.175446z" />
  <path d="M130.651932,43.546593
	C131.734940,36.697742 137.521042,39.319778 141.290833,38.219143
	C142.534744,37.855968 144.567612,40.195045 147.255173,41.968655
	C142.590302,43.809361 138.353928,43.676884 137.611404,48.313301
	C137.590195,48.445747 134.550598,48.639030 133.528824,47.927444
	C132.288208,47.063427 131.696701,45.267357 130.651932,43.546593z" />
</svg>
