<?xml version="1.0" encoding="UTF-8"?>
<svg viewBox="0 0 18.95 16.423" xmlns="http://www.w3.org/2000/svg">
  <g transform="translate(.00020369 -2.6701)">
    <path d="m4.398 11.211c0.571 0.894 1.084 1.546 0.933 2.591-0.146 1.012-0.086 2.075-0.587 3.005-0.355 0.66 0.23 0.688 0.527 0.943 1.171 1.012 2.676 0.604 4.007 0.923 1 0.24 2.47 1.208 2.748-0.985 0.05-0.394 0.661-0.506 1.13-0.522 0.75-0.031 1.455 0.137 2.153 0.389 0.99 0.355 2.659-0.353 3.061-1.26 0.169-0.383-0.012-0.44-0.323-0.596-0.828-0.411-0.778-1.065-0.575-1.9 0.174-0.727 0.312-1.787-0.597-2.121-0.834-0.307-0.304-0.605-0.116-0.785 0.899-0.877 1.427-1.916 1.968-3.06 0.55-1.16-0.011-1.182-0.693-1.381-2.522-0.738-4.841-1.874-6.952-3.442-0.804-0.599-1.495-0.408-1.554 0.587-0.059 0.971-0.442 1.308-1.329 1.315-0.351 5e-3 -0.697 0.11-0.856 0.471-0.512 1.167-1.234 0.641-1.864 0.187-0.33-0.24-0.562-0.573-0.997-0.276-0.477 0.324-0.184 0.649-1e-3 1 0.531 1.014 0.286 1.184-0.869 1.119-0.239-0.015-0.436-0.104-0.619-0.206-0.307-0.17-0.578-0.365-0.95-0.264-0.331 0.081-0.658 0.188-0.993 0.236-0.451 0.065-1.063-0.158-1.05 0.64 0.011 0.684 0.208 1.179 0.999 1.376 1.308 0.326 2.493 0.596 3.399 2.016z"/>
  </g>
</svg>
