<?xml version="1.0" encoding="UTF-8"?>
<svg viewBox="0 0 125.66 125.66" xmlns="http://www.w3.org/2000/svg">
  <path d="m88.947 67.734c0 1.544-1.252 2.802-2.801 2.802h-17.157c-1.401 0-2.583-1.028-2.763-2.419l-3.033-21.769-6.123 56.013c-0.147 1.319-1.216 2.375-2.561 2.474-0.079 5e-3 -0.145 0.013-0.229 0.013-1.251 0-2.354-0.822-2.685-2.043l-9.126-32.46-8.988 17.078c-0.539 1.028-1.667 1.653-2.813 1.479-1.159-0.139-2.101-0.976-2.388-2.101l-4.375-17.49h-21.102c-1.541 1e-3 -2.803-1.259-2.803-2.801 0-1.549 1.262-2.802 2.803-2.802h23.285c1.284 0 2.412 0.875 2.72 2.123l3.124 12.487 8.843-16.789c0.528-1.023 1.631-1.638 2.764-1.488 1.137 0.121 2.089 0.925 2.412 2.024l7.117 25.319 7.018-64.09c0.149-1.401 1.321-2.465 2.743-2.487 1.576 0.134 2.617 1.026 2.813 2.426l5.79 41.699h14.719c1.544 1e-3 2.796 1.26 2.796 2.802zm14.824-2.801h-8.862c-1.54 0-2.802 1.26-2.802 2.802 0 1.544 1.262 2.802 2.802 2.802h8.862c1.537 0 2.802-1.258 2.802-2.802 0-1.543-1.265-2.802-2.802-2.802zm19.083 0h-9.431c-1.537 0-2.802 1.26-2.802 2.802 0 1.544 1.265 2.802 2.802 2.802h9.431c1.536 0 2.802-1.258 2.802-2.802 0-1.543-1.266-2.802-2.802-2.802z"/>
</svg>
