<?xml version="1.0" encoding="UTF-8"?>
<svg viewBox="0 0 525.15 525.15" xmlns="http://www.w3.org/2000/svg">
  <path d="m298.7 86.716c23.851 0 43.347-19.496 43.347-43.303 0.022-24.114-19.474-43.413-43.347-43.413-24.091 0-43.347 19.54-43.347 43.391 0 23.829 19.256 43.325 43.347 43.325zm2.889 149.36h117.57v-43.347h-87.197l-48.183-80.239c-7.221-12.035-20.218-20-35.185-20-4.07 0-8.162 0.766-11.794 1.729l-130.81 40.656v125.29h43.347v-88.379l50.852-15.908-94.199 369.27h43.347l69.145-195.36 56.126 74.9v120.46h43.347v-154.42l-59.977-109.36 17.593-69.123 26.016 43.828z"/>
</svg>
