<?xml version="1.0" encoding="UTF-8"?>
<svg viewBox="0 0 448 448" xmlns="http://www.w3.org/2000/svg">
  <path d="m255.89 32c-106.13 0-191.89 85.973-191.89 192h-64l83.093 83.093 1.493 3.093 86.081-86.186h-64c0-82.453 66.88-149.33 149.33-149.33s149.33 66.88 149.33 149.33-66.88 149.33-149.33 149.33c-41.28 0-78.507-16.853-105.49-43.84l-30.187 30.187c34.667 34.773 82.56 56.32 135.57 56.32 106.13 0 192.11-85.973 192.11-192s-85.973-192-192.11-192z"/>
  <polygon points="234.67 138.67 234.67 245.33 325.97 299.52 341.33 273.6 266.67 229.33 266.67 138.67"/>
</svg>
