<?xml version="1.0" encoding="UTF-8"?>
<svg viewBox="0 0 52 52" xmlns="http://www.w3.org/2000/svg">
  <path d="m26 0c-14.337 0-26 11.663-26 26s11.663 26 26 26 26-11.663 26-26-11.663-26-26-26zm0 50c-13.233 0-24-10.767-24-24s10.767-24 24-24 24 10.767 24 24-10.767 24-24 24z"/>
  <path d="m26 37c-0.553 0-1 0.447-1 1v2c0 0.553 0.447 1 1 1s1-0.447 1-1v-2c0-0.553-0.447-1-1-1z"/>
  <path d="m26.113 9.001c-0.038 0-0.076-1e-3 -0.115-1e-3 -2.116 0-4.106 0.815-5.615 2.304-1.536 1.515-2.383 3.538-2.383 5.696 0 0.553 0.447 1 1 1s1-0.447 1-1c0-1.618 0.635-3.136 1.787-4.272 1.153-1.137 2.688-1.765 4.299-1.727 3.161 0.044 5.869 2.752 5.913 5.913 0.029 2.084-0.999 4.002-2.751 5.132-2.66 1.716-4.248 4.748-4.248 8.112v2.842c0 0.553 0.447 1 1 1s1-0.447 1-1v-2.842c0-2.642 1.276-5.105 3.332-6.432 2.335-1.506 3.706-4.063 3.667-6.84-0.06-4.287-3.598-7.825-7.886-7.885z"/>
</svg>
