<?xml version="1.0" encoding="iso-8859-1"?>
<svg version="1.1" id="Layer_1" xmlns="http://www.w3.org/2000/svg" x="0px" y="0px"
     viewBox="0 0 473.935 473.935" style="enable-background:new 0 0 473.935 473.935;" xml:space="preserve">
<circle style="fill:#a7ff00;" cx="236.967" cy="236.967" r="236.967"/>
  <g>
	<circle style="fill:#333333;" cx="164.938" cy="207.632" r="37.216"/>
    <ellipse style="fill:#333333;" cx="313.637" cy="188.324" rx="37.216" ry="56.501"/>
    <path style="fill:#333333;" d="M195.348,102.72c-12.456,14.571-24.909,29.137-37.365,43.708c4.412,0,8.816,0,13.227,0
		c-25.141-20.176-50.282-40.351-75.423-60.527c-9.31-7.472-22.642,5.676-13.227,13.227c25.141,20.176,50.282,40.351,75.423,60.527
		c3.719,2.986,9.658,4.176,13.227,0c12.456-14.571,24.909-29.137,37.365-43.708C216.369,106.832,203.202,93.533,195.348,102.72
		L195.348,102.72z"/>
    <path style="fill:#333333;" d="M280.432,124.747c12.456-14.571,24.913-29.137,37.366-43.708c-4.412,0-8.816,0-13.227,0
		c25.141,20.176,50.282,40.351,75.423,60.527c9.31,7.472,22.642-5.676,13.227-13.227c-25.141-20.176-50.282-40.351-75.423-60.527
		c-3.719-2.986-9.658-4.176-13.227,0c-12.456,14.571-24.913,29.137-37.366,43.708C259.411,120.635,272.582,133.934,280.432,124.747
		L280.432,124.747z"/>
    <path style="fill:#333333;" d="M178.457,386.725c37.579,0,75.158,0,112.736,0c12.067,0,12.067-18.709,0-18.709
		c-37.579,0-75.158,0-112.736,0C166.394,368.016,166.394,386.725,178.457,386.725L178.457,386.725z"/>
</g>
</svg>
