<?xml version="1.0" encoding="UTF-8"?>
<svg viewBox="0 0 457.03 457.03" xmlns="http://www.w3.org/2000/svg">
  <path d="m421.51 207.07-85.795 85.767c-47.352 47.38-124.17 47.38-171.53 0-7.46-7.439-13.296-15.821-18.421-24.465l39.864-39.861c1.895-1.911 4.235-3.006 6.471-4.296 2.756 9.416 7.567 18.33 14.972 25.736 23.648 23.667 62.128 23.634 85.762 0l85.768-85.765c23.666-23.664 23.666-62.135 0-85.781-23.635-23.646-62.105-23.646-85.768 0l-30.499 30.532c-24.75-9.637-51.415-12.228-77.373-8.424l64.991-64.989c47.38-47.371 124.18-47.371 171.56 0 47.357 47.369 47.357 124.18 0 171.55zm-226.8 141.03-30.521 30.532c-23.646 23.634-62.128 23.634-85.778 0-23.648-23.667-23.648-62.138 0-85.795l85.778-85.767c23.665-23.662 62.121-23.662 85.767 0 7.388 7.39 12.204 16.302 14.986 25.706 2.249-1.307 4.56-2.369 6.454-4.266l39.861-39.845c-5.092-8.678-10.958-17.03-18.421-24.477-47.348-47.371-124.17-47.371-171.54 0l-85.765 85.768c-47.366 47.385-47.366 124.17 0 171.55 47.371 47.356 124.18 47.356 171.55 0l65.008-65.003c-25.972 3.826-52.644 1.213-77.373-8.406z"/>
</svg>
