<?xml version="1.0" encoding="iso-8859-1"?>
<!DOCTYPE svg PUBLIC "-//W3C//DTD SVG 1.1//EN" "http://www.w3.org/Graphics/SVG/1.1/DTD/svg11.dtd">
<svg version="1.1" id="Capa_1" xmlns="http://www.w3.org/2000/svg" x="0px" y="0px"
     width="21.249px" height="21.249px" viewBox="0 0 21.249 21.249" style="enable-background:new 0 0 21.249 21.249;"
     xml:space="preserve">
  <g>
    <path d="M21.035,1.863c-1.086-0.336-1.784-1.465-3.171-1.237c-2.511,0.413-5.216,0.08-6.993,2.585
      c-0.449,0.631-1.324,1.164-2.139,1.17c-1.07,0.005-1.379,0.604-1.496,1.405c-0.349,2.394-1.464,4.312-3.325,5.849
      c-0.339,0.28-0.438,0.85-0.647,1.284c-0.069,0.079-0.138,0.156-0.207,0.233c-0.334,0.135-0.893-0.159-0.998,0.358
      c-0.099,0.487,0.771,0.063,0.751,0.485c-0.451,0.769-2.705-0.856-1.747,1.525c-0.125,0.049-0.246,0.112-0.376,0.146
      c-0.376,0.096-0.865,0.112-0.623,0.714c0.179,0.442,0.462,0.744,1.023,0.497c0.322-0.142,0.676-0.128,0.996,0.05
      c0.91,0.507,1.638,0.154,2.436-0.356c0.897-0.579,1.865-1.308,2.984-1.05c0.665,0.152,1.582-0.123,1.938,0.354
      c0.592,0.795,1.241,0.884,2.121,0.964c1.568,0.14,2.045,1.042,1.395,2.303c-0.2,0.391-0.56,0.771-0.048,1.153
      c0.511,0.379,1.2,0.499,1.649,0.15c0.33-0.257,0.656-0.945,0.123-1.421c-0.464-0.416-0.426-0.549,0.098-0.905
      c0.884-0.605,1.118-2.937,0.56-3.856c-0.278-0.455-1.027-0.854-0.578-1.482c0.378-0.525,1-0.257,1.601-0.19
      c0.989,0.108,2.558,0.06,2.603-0.967c0.038-0.892,0.359-1.067,0.849-1.421c0.49-0.354,0.62-0.889,0.575-1.438
      c-0.051-0.608-0.521-0.759-1.056-0.776c-0.344-0.013-0.76-0.008-0.735-0.497c0.025-0.521,0.335-0.773,0.886-0.73
      c0.38,0.031,0.821,0.095,0.94-0.438c0.24-1.086,0.979-2.055,0.783-3.243C21.136,2.661,21.438,1.986,21.035,1.863z"/>
  </g>
</svg>
