<?xml version="1.0" encoding="UTF-8"?>
<svg viewBox="0 0 54 54" xmlns="http://www.w3.org/2000/svg">
  <path d="m53.516 1.143c-0.3-0.182-0.674-0.19-0.983-0.027l-16.533 8.753-16.532-8.753c-0.013-7e-3 -0.028-9e-3 -0.041-0.015-0.048-0.023-0.097-0.04-0.147-0.055-0.028-8e-3 -0.055-0.017-0.083-0.023-0.055-0.011-0.111-0.015-0.168-0.017-0.025-1e-3 -0.05-4e-3 -0.076-3e-3 -0.054 3e-3 -0.107 0.013-0.16 0.025-0.03 6e-3 -0.06 0.01-0.089 0.019-7e-3 2e-3 -0.014 2e-3 -0.02 4e-3l-18 6c-0.409 0.136-0.684 0.518-0.684 0.949v43c0 0.321 0.154 0.623 0.416 0.812 0.172 0.123 0.377 0.188 0.584 0.188 0.106 0 0.213-0.017 0.316-0.052l17.646-5.882 16.657 6.859c0.014 6e-3 0.03 4e-3 0.044 9e-3 0.11 0.039 0.222 0.066 0.337 0.066 0.09 0 0.179-0.015 0.266-0.039 0.028-8e-3 0.054-0.021 0.082-0.031 0.04-0.015 0.082-0.026 0.12-0.046l17-9c0.327-0.173 0.532-0.514 0.532-0.884v-41c0-0.351-0.184-0.676-0.484-0.857zm-51.516 7.578 16-5.333v26.992c-0.43 0.078-0.854 0.166-1.264 0.274-0.534 0.142-0.852 0.689-0.71 1.223 0.119 0.448 0.523 0.744 0.966 0.744 0.084 0 0.171-0.011 0.257-0.033 0.24-0.064 0.502-0.096 0.751-0.148v11.84l-16 5.332v-40.891zm18 23.439c0.321-0.025 0.632-0.066 0.961-0.073 0.552-0.012 0.99-0.469 0.979-1.021-0.012-0.545-0.457-0.979-1-0.979h-0.022c-0.31 7e-3 -0.615 0.024-0.918 0.045v-26.471l15 7.941v21.194c-0.714-0.031-1.44-0.115-2.201-0.262-0.544-0.107-1.067 0.249-1.172 0.791s0.25 1.067 0.792 1.172c0.886 0.172 1.746 0.256 2.582 0.289v15.721l-15.001-6.177v-12.17zm32 10.237-15 7.941v-15.66c0.372-0.169 0.62-0.549 0.587-0.98-0.029-0.374-0.269-0.674-0.587-0.821v-21.275l15-7.941v38.736z"/>
  <path d="m11 9c-2.757 0-5 2.243-5 5 0 2.415 1.721 4.434 4 4.899v2.101c0 0.553 0.448 1 1 1s1-0.447 1-1v-2.101c2.279-0.465 4-2.484 4-4.899 0-2.757-2.243-5-5-5zm0 8c-1.654 0-3-1.346-3-3s1.346-3 3-3 3 1.346 3 3-1.346 3-3 3z"/>
  <path d="m45.07 27.673c0.12 0.047 0.243 0.068 0.364 0.068 0.4 0 0.777-0.241 0.932-0.636 0.47-1.199 0.847-2.553 1.123-4.024 0.102-0.542-0.256-1.064-0.799-1.167-0.546-0.09-1.065 0.257-1.167 0.8-0.252 1.348-0.595 2.58-1.019 3.663-0.201 0.513 0.052 1.094 0.566 1.296z"/>
  <path d="m12.805 32.342c-1.207 0.757-2.295 1.705-3.235 2.82-0.356 0.422-0.302 1.053 0.12 1.409 0.188 0.158 0.417 0.235 0.644 0.235 0.285 0 0.567-0.121 0.765-0.355 0.806-0.956 1.737-1.769 2.768-2.414 0.468-0.294 0.609-0.911 0.316-1.379s-0.911-0.61-1.378-0.316z"/>
  <path d="m8.627 38.276c-0.502-0.23-1.096-0.013-1.327 0.489-1.026 2.226-1.28 4.023-1.291 4.099-0.075 0.547 0.307 1.05 0.854 1.125 0.046 7e-3 0.093 0.01 0.138 0.01 0.491 0 0.919-0.362 0.99-0.861 2e-3 -0.016 0.231-1.597 1.125-3.534 0.231-0.503 0.012-1.096-0.489-1.328z"/>
  <path d="m40.423 33.729c0.153 0 0.309-0.035 0.454-0.109 1.292-0.661 2.431-1.599 3.384-2.786 0.346-0.431 0.277-1.061-0.154-1.406-0.43-0.343-1.06-0.276-1.406 0.154-0.776 0.967-1.696 1.726-2.735 2.257-0.492 0.252-0.687 0.854-0.435 1.346 0.178 0.345 0.529 0.544 0.892 0.544z"/>
  <path d="m29.17 31.432c-0.441-0.185-0.699-0.313-0.716-0.322-0.065-0.033-0.134-0.06-0.205-0.078-1.083-0.278-2.15-0.498-3.173-0.654-0.545-0.086-1.056 0.291-1.14 0.837-0.083 0.546 0.292 1.057 0.838 1.14 0.926 0.142 1.893 0.34 2.877 0.59 0.134 0.064 0.39 0.185 0.748 0.334 0.126 0.053 0.257 0.077 0.385 0.077 0.391 0 0.763-0.23 0.923-0.614 0.213-0.512-0.027-1.098-0.537-1.31z"/>
  <path d="m46.923 19.931c0.022 1e-3 0.043 2e-3 0.065 2e-3 0.523 0 0.963-0.406 0.997-0.937 0.062-0.961 0.093-1.978 0.093-3.02 0-0.347-3e-3 -0.699-0.01-1.058-0.01-0.553-0.49-0.973-1.018-0.982-0.552 0.01-0.992 0.466-0.982 1.018 6e-3 0.347 0.01 0.688 0.01 1.022 0 1-0.03 1.973-0.089 2.893-0.035 0.551 0.383 1.026 0.934 1.062z"/>
  <path d="m8.293 28.707c0.195 0.195 0.451 0.293 0.707 0.293s0.512-0.098 0.707-0.293l1.293-1.293 1.293 1.293c0.195 0.195 0.451 0.293 0.707 0.293s0.512-0.098 0.707-0.293c0.391-0.391 0.391-1.023 0-1.414l-1.293-1.293 1.293-1.293c0.391-0.391 0.391-1.023 0-1.414s-1.023-0.391-1.414 0l-1.293 1.293-1.293-1.293c-0.391-0.391-1.023-0.391-1.414 0s-0.391 1.023 0 1.414l1.293 1.293-1.293 1.293c-0.391 0.39-0.391 1.023 0 1.414z"/>
</svg>
