<?xml version="1.0" encoding="UTF-8"?>
<svg width="512pt" height="512pt" viewBox="0 0 512 512" xmlns="http://www.w3.org/2000/svg">
  <path d="m502.12 1.2148c-5.9727-2.4531-12.863-1.1094-17.43 3.4766l-57.598 57.602c-47.488-39.211-108.42-62.293-171.09-62.293-141.16 0-256 114.84-256 256s114.84 256 256 256c68.332 0 132.61-26.645 180.97-75.031 8.3438-8.3398 8.3438-21.82 0-30.164-8.3398-8.3398-21.82-8.3398-30.164 0-40.297 40.32-93.867 62.527-150.8 62.527-117.63 0-213.33-95.699-213.33-213.33s95.699-213.33 213.33-213.33c51.414 0 101.33 18.496 140.78 49.918l-50.75 50.773c-4.5859 4.5859-5.9297 11.457-3.4766 17.43 2.4727 5.9727 8.2969 9.8789 14.781 9.8789h138.67c8.832 0 16-7.168 16-16v-138.67c0-6.4844-3.9023-12.309-9.8789-14.785z"/>
</svg>
