<?xml version="1.0" encoding="UTF-8"?>
<svg viewBox="0 0 30.143 30.143" xmlns="http://www.w3.org/2000/svg">
  <path d="m20.034 2.357v3.824c3.482 1.798 5.869 5.427 5.869 9.619 0 5.98-4.848 10.83-10.828 10.83-5.982 0-10.832-4.85-10.832-10.83 0-3.844 2.012-7.215 5.029-9.136v-3.975c-5.027 2.229-8.541 7.256-8.541 13.112 0 7.921 6.42 14.342 14.34 14.342 7.924 0 14.342-6.421 14.342-14.342-1e-3 -6.177-3.912-11.422-9.379-13.444z"/>
  <path d="m14.795 17.652c1.576 0 1.736-0.931 1.736-2.076v-13.496c0-1.148-0.16-2.08-1.736-2.08-1.57 0-1.732 0.932-1.732 2.08v13.496c-1e-3 1.146 0.162 2.076 1.732 2.076z"/>
</svg>
