<?xml version="1.0" encoding="UTF-8"?>
<svg viewBox="0 0 512 512" xmlns="http://www.w3.org/2000/svg">
  <path d="m362.67 128h-336.06c-12.382 0-23.757 8.346-26.112 20.497-3.174 16.341 9.318 30.703 25.105 30.703h337.07c2.355 0 4.267-1.911 4.267-4.267v-42.667c0-2.354-1.912-4.266-4.267-4.266z"/>
  <path d="m508.98 147.08-110.93-93.867c-2.534-2.142-6.084-2.628-9.105-1.229-3.012 1.408-4.941 4.42-4.941 7.748v187.73c0 3.328 1.929 6.34 4.941 7.74 1.152 0.538 2.372 0.794 3.593 0.794 1.98 0 3.942-0.691 5.513-2.014l110.93-93.867c1.92-1.63 3.021-4.011 3.021-6.519s-1.102-4.889-3.022-6.519z"/>
  <path d="m123.06 256.8c-3.021-1.399-6.571-0.913-9.105 1.229l-110.93 93.866c-1.92 1.621-3.021 4.002-3.021 6.511s1.101 4.89 3.021 6.519l110.93 93.867c1.57 1.323 3.533 2.014 5.513 2.014 1.22 0 2.441-0.256 3.593-0.794 3.012-1.399 4.941-4.412 4.941-7.74v-187.73c-1e-3 -3.328-1.929-6.341-4.942-7.74z"/>
  <path d="m511.51 353.3c-2.364-12.151-13.739-20.497-26.112-20.497h-336.06c-2.355 0-4.267 1.911-4.267 4.267v42.667c0 2.355 1.911 4.267 4.267 4.267h337.07c15.787-1e-3 28.28-14.362 25.105-30.704z"/>
</svg>
