<?xml version="1.0" encoding="UTF-8"?>
<svg xmlns="http://www.w3.org/2000/svg" width="30pt" height="30pt" viewBox="0 0 30 30" version="1.1">
  <g>
    <path style="stroke:none;fill-rule:nonzero;fill:rgb(80%,80%,80%);fill-opacity:1;"
          d="M 25.84375 22.375 C 25.042969 20.980469 23.765625 19.957031 22.339844 19.570312 C 21.371094 19.304688 20.386719 19.355469 19.53125 19.703125 L 17.019531 15.308594 C 19.25 11.207031 22.558594 5.144531 22.976562 4.414062 C 23.996094 2.628906 22.320312 0.648438 22.25 0.566406 L 21.761719 0 L 15.015625 11.800781 L 8.265625 0 L 7.78125 0.566406 C 7.707031 0.648438 6.03125 2.628906 7.050781 4.414062 C 7.46875 5.144531 10.777344 11.207031 13.011719 15.308594 L 10.496094 19.703125 C 9.640625 19.355469 8.65625 19.304688 7.6875 19.570312 C 6.261719 19.957031 4.984375 20.980469 4.183594 22.378906 C 2.679688 25.007812 3.285156 28.195312 5.535156 29.484375 C 6.164062 29.84375 6.863281 30.027344 7.605469 30.027344 C 8.015625 30.027344 8.441406 29.996094 8.84375 29.859375 C 11.257812 29.039062 12.492188 27.066406 13.082031 25.042969 C 13.109375 24.953125 14.300781 20.132812 14.964844 19.082031 C 14.964844 19.082031 14.984375 19.042969 15.015625 18.988281 C 15.042969 19.042969 15.066406 19.082031 15.066406 19.082031 C 15.730469 20.132812 16.921875 24.953125 16.945312 25.042969 C 17.535156 27.066406 18.773438 29.039062 21.183594 29.859375 C 21.589844 29.996094 22.011719 30.027344 22.421875 30.027344 C 23.167969 30.027344 23.863281 29.84375 24.492188 29.484375 C 26.742188 28.195312 27.347656 25.007812 25.84375 22.375 Z M 10.398438 25.9375 C 9.898438 26.808594 9.097656 27.464844 8.257812 27.695312 C 8.035156 27.753906 7.820312 27.785156 7.609375 27.785156 C 7.261719 27.785156 6.9375 27.699219 6.652344 27.535156 C 5.476562 26.863281 5.242188 25.046875 6.132812 23.492188 C 6.640625 22.605469 7.421875 21.96875 8.273438 21.734375 C 8.855469 21.578125 9.417969 21.628906 9.878906 21.890625 C 11.054688 22.566406 11.289062 24.378906 10.398438 25.9375 Z M 23.375 27.535156 C 23.089844 27.699219 22.765625 27.785156 22.417969 27.785156 C 22.210938 27.785156 21.992188 27.753906 21.769531 27.695312 C 20.929688 27.464844 20.128906 26.808594 19.628906 25.9375 C 18.738281 24.378906 18.972656 22.566406 20.148438 21.894531 C 20.609375 21.628906 21.171875 21.578125 21.753906 21.738281 C 22.605469 21.96875 23.386719 22.609375 23.894531 23.492188 C 24.785156 25.050781 24.550781 26.863281 23.375 27.535156 Z M 23.375 27.535156 "/>
  </g>
</svg>
