<svg version="1.1" xmlns="http://www.w3.org/2000/svg" x="0px" y="0px"
     width="21.186px" height="21.186px" viewBox="0 0 21.186 21.186" style="enable-background:new 0 0 21.186 21.186;"
     xml:space="preserve">
<g>
	<path d="M0.66,5.918c1.257-0.082,2.383,0.617,3.613,0.3c0.2-0.053,1.23,0.582,0.307,1.269C4.156,7.801,4.072,8.2,3.983,8.721
		c-0.146,0.857,0.486,2.077-0.944,2.484c-0.28,0.08-0.013,0.313,0.06,0.452c0.331,0.629,0.285,1.21,0.239,1.935
		c-0.053,0.854-0.244,1.561-0.518,2.321c-0.094,0.264-0.108,0.842,0.326,0.847c1.265,0.012,1.526,0.983,2.007,1.823
		c0.331,0.577,0.881,1.309,1.591,0.6c1.005-1.004,2.121-1.607,3.494-1.272c2.31,0.564,3.024-1.939,4.797-2.349
		c-0.49-1.43,2.429-2.213,0.721-3.925c-0.352-0.354,0.041-0.971,0.324-1.348c0.928-1.244,1.287-3,3.229-3.348
		c0.542-0.097,0.968-0.776,1.478-1.146c0.502-0.367,0.426-0.871,0.322-1.333c-0.149-0.68-0.647-0.278-1.041-0.285
		c-0.8-0.01-1.639,0.184-2.342-0.481c-0.193-0.185-0.716-0.249-0.951-0.12c-1.238,0.686-2.281-0.076-3.297-0.487
		c-0.484-0.196-0.914-0.353-1.439-0.456c-2.021-0.398-4.073-0.101-6.115-0.319C4.322,2.142,2.74,1.635,1.079,1.72
		C0.092,1.768,0.002,2.109,0,2.925C-0.002,4.023,1.031,4.842,0.66,5.918z"/>
</g>
</svg>
