<?xml version="1.0" encoding="UTF-8"?>
<svg viewBox="0 0 451.74 451.74" xmlns="http://www.w3.org/2000/svg">
  <path d="m446.32 367.38-183.47-325.69c-15.644-28.444-58.311-28.444-73.956 0l-183.47 325.69c-15.644 28.444 4.267 64 36.978 64h365.51c34.133-1.422 54.044-35.556 38.4-64z" fill="#E24C4B"/>
  <path d="m225.88 63.025 183.47 325.69h-366.93l183.47-325.69z" fill="#fff"/>
  <g fill="#3F4448">
    <path d="m196.01 212.36 11.378 75.378c1.422 8.533 8.533 15.644 18.489 15.644 8.533 0 17.067-7.111 18.489-15.644l11.378-75.378c2.844-18.489-11.378-34.133-29.867-34.133-18.49-1e-3 -31.29 15.644-29.867 34.133z"/>
    <circle cx="225.88" cy="336.09" r="17.067"/>
  </g>
</svg>
